<svg width="69" height="61" viewBox="0 0 69 61" fill="none" xmlns="http://www.w3.org/2000/svg">
<path fill-rule="evenodd" clip-rule="evenodd" d="M27 60.875H41.9999C52.5336 60.875 57.8003 60.875 61.5837 58.393C63.2212 57.3184 64.6276 55.9377 65.7221 54.3299C68.25 50.6153 68.25 45.4442 68.25 35.1021C68.25 24.7605 68.25 19.5893 65.7221 15.8748C64.6276 14.2667 63.2212 12.886 61.5837 11.8115C59.1523 10.2167 56.1091 9.64665 51.4492 9.4429C49.2255 9.4429 47.3112 7.78855 46.8751 5.64772C46.2207 2.4365 43.3489 0.125 40.0137 0.125H28.9863C25.6509 0.125 22.7791 2.4365 22.125 5.64772C21.6889 7.78855 19.7744 9.4429 17.5508 9.4429C12.891 9.64665 9.84748 10.2167 7.41643 11.8115C5.77858 12.886 4.37232 14.2667 3.27794 15.8748C0.75 19.5893 0.75 24.7605 0.75 35.1021C0.75 45.4442 0.75 50.6153 3.27794 54.3299C4.37232 55.9377 5.77858 57.3184 7.41643 58.393C11.1998 60.875 16.4665 60.875 27 60.875ZM34.5 21.2955C26.7335 21.2955 20.4375 27.477 20.4375 35.1021C20.4375 42.7276 26.7335 48.9089 34.5 48.9089C42.2665 48.9089 48.5626 42.7276 48.5626 35.1021C48.5626 27.477 42.2665 21.2955 34.5 21.2955ZM34.5 26.8182C29.8401 26.8182 26.0625 30.527 26.0625 35.1021C26.0625 39.6773 29.8401 43.3864 34.5 43.3864C39.1599 43.3864 42.9375 39.6773 42.9375 35.1021C42.9375 30.527 39.1599 26.8182 34.5 26.8182ZM50.4374 24.0568C50.4374 22.5318 51.6966 21.2955 53.2501 21.2955H57.0001C58.5533 21.2955 59.8125 22.5318 59.8125 24.0568C59.8125 25.582 58.5533 26.8182 57.0001 26.8182H53.2501C51.6966 26.8182 50.4374 25.582 50.4374 24.0568Z" fill="#0077CD"/>
</svg>
