<svg width="43" height="39" viewBox="0 0 43 39" fill="none" xmlns="http://www.w3.org/2000/svg">
<path d="M36.375 0.375H6.625C3.6198 0.375 2.1172 0.375 1.1836 1.25092C0.25 2.12685 0.25 3.53662 0.25 6.35615V7.82202C0.25 10.0274 0.25 11.1301 0.80165 12.0443C1.3533 12.9584 2.36112 13.5257 4.37679 14.6604L10.567 18.1451C11.9194 18.9063 12.5955 19.2871 13.0797 19.7074C14.088 20.5827 14.7087 21.6112 14.9899 22.8728C15.125 23.4784 15.125 24.1873 15.125 25.6049V31.2776C15.125 33.2105 15.125 34.1767 15.6603 34.9303C16.1957 35.6836 17.1465 36.0552 19.0482 36.7988C23.0402 38.3594 25.0362 39.1397 26.4557 38.2518C27.875 37.364 27.875 35.3353 27.875 31.2776V25.6049C27.875 24.1873 27.875 23.4784 28.0101 22.8728C28.2913 21.6112 28.912 20.5827 29.9203 19.7074C30.4044 19.2871 31.0806 18.9063 32.4331 18.1451L38.6232 14.6604C40.6388 13.5257 41.6467 12.9584 42.1983 12.0443C42.75 11.1301 42.75 10.0274 42.75 7.82202V6.35615C42.75 3.53662 42.75 2.12685 41.8165 1.25092C40.8828 0.375 39.3802 0.375 36.375 0.375Z" fill="white"/>
</svg>
