<svg width="25" height="25" viewBox="0 0 25 25" fill="none" xmlns="http://www.w3.org/2000/svg">
<g id="key-svgrepo-com">
<path id="Vector" fill-rule="evenodd" clip-rule="evenodd" d="M22.9166 8.639C22.9166 12.2596 19.9696 15.1947 16.334 15.1947C15.6707 15.1947 14.1603 15.0422 13.4255 14.4324L12.507 15.3472C11.967 15.885 12.1128 16.0433 12.353 16.3042C12.4532 16.413 12.57 16.5397 12.6601 16.7193C12.6601 16.7193 13.4255 17.7865 12.6601 18.8536C12.2008 19.4634 10.9149 20.3172 9.44533 18.8536L9.13917 19.1585C9.13917 19.1585 10.0577 20.2257 9.29225 21.2929C8.833 21.9028 7.60834 22.5126 6.53676 21.4454L5.46519 22.5126C4.73039 23.2444 3.83232 22.8175 3.47515 22.5126L2.55666 21.5978C1.69939 20.7441 2.19946 19.8192 2.55666 19.4634L10.517 11.5357C10.517 11.5357 9.75154 10.316 9.75154 8.639C9.75154 5.01841 12.6986 2.08333 16.334 2.08333C19.9696 2.08333 22.9166 5.01841 22.9166 8.639ZM16.3344 10.9259C17.6025 10.9259 18.6305 9.90209 18.6305 8.63909C18.6305 7.37609 17.6025 6.35223 16.3344 6.35223C15.0661 6.35223 14.0381 7.37609 14.0381 8.63909C14.0381 9.90209 15.0661 10.9259 16.3344 10.9259Z" fill="white"/>
</g>
</svg>
