<svg width="25" height="25" viewBox="0 0 25 25" fill="none" xmlns="http://www.w3.org/2000/svg">
<g id="phone-svgrepo-com 1">
<path id="Vector" d="M17.2461 13.444L16.7716 13.9156C16.7716 13.9156 15.6439 15.037 12.5657 11.9762C9.48764 8.91563 10.6153 7.79434 10.6153 7.79434L10.9141 7.49727C11.6501 6.76546 11.7195 5.59053 11.0773 4.73279L9.76383 2.97821C8.96906 1.91658 7.43331 1.77634 6.52236 2.68211L4.88736 4.30783C4.43567 4.75696 4.13299 5.33915 4.1697 5.98501C4.2636 7.63731 5.01117 11.1924 9.18268 15.3402C13.6064 19.7387 17.7571 19.9135 19.4545 19.7553C19.9914 19.7053 20.4582 19.4319 20.8345 19.0577L22.3143 17.5865C23.3131 16.5932 23.0315 14.8905 21.7535 14.1958L19.7634 13.114C18.9242 12.6578 17.9019 12.7918 17.2461 13.444Z" fill="white"/>
</g>
</svg>
