<svg width="42" height="42" viewBox="0 0 42 42" fill="none" xmlns="http://www.w3.org/2000/svg">
<g id="upload-cloud-svgrepo-com 1" clip-path="url(#clip0_13_9)">
<path id="Vector" d="M0 21V18.396C0 15.484 1.022 13.006 3.066 10.962C5.11 8.918 7.588 7.896 10.5 7.896C11.396 7.896 12.348 8.05 13.356 8.358C13.86 5.95 15.078 3.962 17.01 2.394C18.942 0.826 21.154 0.028 23.646 0C26.53 0 28.994 1.036 31.038 3.108C33.082 5.18 34.118 7.644 34.146 10.5C34.146 11.284 34.006 12.18 33.726 13.188C33.922 13.16 34.062 13.146 34.146 13.146C36.302 13.146 38.15 13.916 39.69 15.456C41.23 16.996 42 18.844 42 21V23.646C42 25.83 41.23 27.678 39.69 29.19C38.15 30.702 36.302 31.472 34.146 31.5H33.642C33.894 30.8 34.048 30.17 34.104 29.61C34.188 28.462 34.048 27.342 33.684 26.25C33.32 25.158 32.704 24.192 31.836 23.352L26.586 18.102C25.046 16.534 23.184 15.75 21 15.75C18.816 15.75 16.968 16.52 15.456 18.06L10.206 23.31C9.366 24.15 8.75 25.13 8.358 26.25C7.966 27.37 7.826 28.504 7.938 29.652C7.966 30.156 8.078 30.702 8.274 31.29C5.894 30.758 3.92 29.54 2.352 27.636C0.784 25.732 0 23.52 0 21ZM13.146 29.148C13.062 28.308 13.314 27.608 13.902 27.048L19.152 21.798C19.684 21.266 20.3 21 21 21C21.728 21 22.344 21.266 22.848 21.798L28.098 27.048C28.686 27.608 28.952 28.308 28.896 29.148C28.868 29.4 28.798 29.652 28.686 29.904C28.49 30.38 28.168 30.772 27.72 31.08C27.272 31.388 26.782 31.528 26.25 31.5H23.646V39.396C23.646 40.124 23.38 40.74 22.848 41.244C22.316 41.748 21.7 42 21 42C20.3 42 19.684 41.748 19.152 41.244C18.62 40.74 18.368 40.124 18.396 39.396V31.5H15.75C15.218 31.5 14.742 31.36 14.322 31.08C13.902 30.8 13.566 30.408 13.314 29.904C13.23 29.652 13.174 29.4 13.146 29.148Z" fill="white"/>
</g>
<defs>
<clipPath id="clip0_13_9">
<rect width="42" height="42" fill="white"/>
</clipPath>
</defs>
</svg>
