<svg width="30" height="30" viewBox="0 0 30 30" fill="none" xmlns="http://www.w3.org/2000/svg">
<path fill-rule="evenodd" clip-rule="evenodd" d="M21.375 21H8.625V12C8.625 8.001 11.8125 6 14.9984 6H15.0016C18.1875 6 21.375 8.001 21.375 12V21ZM16.5938 25.5C16.5938 26.328 15.8798 27 15 27C14.1202 27 13.4062 26.328 13.4062 25.5V24H16.5938V25.5ZM26.1562 21C25.2765 21 24.5625 20.328 24.5625 19.5V12C24.5625 6.6705 20.7885 3.71247 16.5938 3.11847V1.5C16.5938 0.672 15.8798 0 15 0C14.1202 0 13.4062 0.672 13.4062 1.5V3.11847C9.2115 3.71247 5.4375 6.6705 5.4375 12V19.5C5.4375 20.328 4.7235 21 3.84375 21C2.964 21 2.25 21.672 2.25 22.5C2.25 23.328 2.964 24 3.84375 24H10.2188V25.5C10.2188 27.9855 12.3592 30 15 30C17.6408 30 19.7812 27.9855 19.7812 25.5V24H26.1562C27.036 24 27.75 23.328 27.75 22.5C27.75 21.672 27.036 21 26.1562 21Z" fill="#0F8AE3"/>
</svg>
