<svg width="53" height="63" viewBox="0 0 53 63" fill="none" xmlns="http://www.w3.org/2000/svg">
<path d="M26.4044 63C23.625 63 26.913 57.0465 13.2105 50.0134C12.4598 49.6274 11.7314 49.1971 11.0287 48.7248C4.21081 44.1544 0 35.7955 0 26.7979C0 11.9986 11.8208 0 26.4044 0C40.988 0 52.8088 11.9986 52.8088 26.795C52.8088 36.709 47.6836 45.8583 39.6205 50.002C25.9041 57.0436 29.1838 63 26.4044 63ZM26.4044 37.5423C32.2718 37.5423 36.9662 32.7543 36.9662 26.9325C36.9662 21.1107 32.2718 16.3227 26.4044 16.3227C20.5371 16.3227 15.8426 21.1107 15.8426 26.9325C15.8426 32.7543 20.5371 37.5423 26.4044 37.5423Z" fill="#DE0B0B"/>
</svg>
