<svg width="256" height="119" viewBox="0 0 256 119" fill="none" xmlns="http://www.w3.org/2000/svg">
<path d="M3.15625 2H30.1875L48.7813 47.3125H49.7188L68.3125 2H95.3438V82H74.0938V35.75H73.4688L55.6563 81.375H42.8438L25.0313 35.4375H24.4063V82H3.15625V2ZM105.637 82V2H140.168C146.105 2 151.301 3.17187 155.754 5.51562C160.207 7.85937 163.671 11.1536 166.145 15.3984C168.618 19.6432 169.855 24.6042 169.855 30.2812C169.855 36.0104 168.579 40.9714 166.027 45.1641C163.501 49.3568 159.947 52.5859 155.363 54.8516C150.806 57.1172 145.48 58.25 139.387 58.25H118.762V41.375H135.012C137.564 41.375 139.738 40.9323 141.535 40.0469C143.358 39.1354 144.751 37.8464 145.715 36.1797C146.704 34.513 147.199 32.5469 147.199 30.2812C147.199 27.9896 146.704 26.0365 145.715 24.4219C144.751 22.7812 143.358 21.5312 141.535 20.6719C139.738 19.7865 137.564 19.3437 135.012 19.3437H127.355V82H105.637ZM255.324 42C255.324 50.9062 253.592 58.4193 250.129 64.5391C246.665 70.6328 241.991 75.2552 236.105 78.4062C230.22 81.5312 223.658 83.0937 216.418 83.0937C209.126 83.0937 202.538 81.5182 196.652 78.3672C190.793 75.1901 186.132 70.5547 182.668 64.4609C179.23 58.3411 177.512 50.8542 177.512 42C177.512 33.0937 179.23 25.5937 182.668 19.5C186.132 13.3802 190.793 8.75781 196.652 5.63281C202.538 2.48177 209.126 0.906247 216.418 0.906247C223.658 0.906247 230.22 2.48177 236.105 5.63281C241.991 8.75781 246.665 13.3802 250.129 19.5C253.592 25.5937 255.324 33.0937 255.324 42ZM232.98 42C232.98 37.2083 232.342 33.1719 231.066 29.8906C229.816 26.5833 227.954 24.0833 225.48 22.3906C223.033 20.6719 220.012 19.8125 216.418 19.8125C212.824 19.8125 209.79 20.6719 207.316 22.3906C204.868 24.0833 203.007 26.5833 201.73 29.8906C200.48 33.1719 199.855 37.2083 199.855 42C199.855 46.7917 200.48 50.8411 201.73 54.1484C203.007 57.4297 204.868 59.9297 207.316 61.6484C209.79 63.3411 212.824 64.1875 216.418 64.1875C220.012 64.1875 223.033 63.3411 225.48 61.6484C227.954 59.9297 229.816 57.4297 231.066 54.1484C232.342 50.8411 232.98 46.7917 232.98 42ZM0.414773 85.5426V81.6364H27.6875V85.5426H16.2528V118H11.8494V85.5426H0.414773ZM34.4835 118V81.6364H46.7704C49.6113 81.6364 51.9432 82.1217 53.7662 83.0923C55.5891 84.0511 56.9385 85.371 57.8145 87.0518C58.6904 88.7327 59.1284 90.6444 59.1284 92.7869C59.1284 94.9295 58.6904 96.8293 57.8145 98.4865C56.9385 100.144 55.595 101.446 53.7839 102.393C51.9728 103.328 49.6587 103.795 46.8414 103.795H36.8983V99.8182H46.6994C48.6407 99.8182 50.2032 99.5341 51.3869 98.9659C52.5824 98.3977 53.4466 97.5928 53.9792 96.5511C54.5237 95.4976 54.796 94.2429 54.796 92.7869C54.796 91.331 54.5237 90.0585 53.9792 88.9695C53.4347 87.8804 52.5647 87.04 51.3691 86.4482C50.1736 85.8445 48.5933 85.5426 46.6284 85.5426H38.8869V118H34.4835ZM51.6 101.665L60.5488 118H55.4352L46.6284 101.665H51.6ZM67.9574 118H63.3409L76.6932 81.6364H81.2386L94.5909 118H89.9744L79.108 87.3892H78.8239L67.9574 118ZM69.6619 103.795H88.2699V107.702H69.6619V103.795ZM127.807 93H123.404C123.144 91.7334 122.688 90.6207 122.037 89.6619C121.398 88.7031 120.616 87.8982 119.693 87.2472C118.782 86.5843 117.769 86.0871 116.657 85.7557C115.544 85.4242 114.384 85.2585 113.177 85.2585C110.975 85.2585 108.98 85.8149 107.193 86.9276C105.417 88.0402 104.003 89.6797 102.949 91.8459C101.908 94.0121 101.387 96.6695 101.387 99.8182C101.387 102.967 101.908 105.624 102.949 107.79C104.003 109.957 105.417 111.596 107.193 112.709C108.98 113.821 110.975 114.378 113.177 114.378C114.384 114.378 115.544 114.212 116.657 113.881C117.769 113.549 118.782 113.058 119.693 112.407C120.616 111.744 121.398 110.933 122.037 109.974C122.688 109.004 123.144 107.891 123.404 106.636H127.807C127.476 108.495 126.872 110.158 125.996 111.626C125.12 113.094 124.031 114.342 122.729 115.372C121.427 116.39 119.965 117.165 118.344 117.698C116.734 118.231 115.011 118.497 113.177 118.497C110.075 118.497 107.317 117.74 104.903 116.224C102.488 114.709 100.588 112.555 99.2029 109.761C97.818 106.968 97.1255 103.653 97.1255 99.8182C97.1255 95.983 97.818 92.6686 99.2029 89.875C100.588 87.0814 102.488 84.9271 104.903 83.4119C107.317 81.8968 110.075 81.1392 113.177 81.1392C115.011 81.1392 116.734 81.4055 118.344 81.9382C119.965 82.4709 121.427 83.2521 122.729 84.282C124.031 85.3 125.12 86.5428 125.996 88.0107C126.872 89.4666 127.476 91.1297 127.807 93ZM134.923 118V81.6364H139.326V99.6761H139.752L156.088 81.6364H161.841L146.571 98.0426L161.841 118H156.514L143.872 101.097L139.326 106.21V118H134.923ZM171.944 81.6364V118H167.54V81.6364H171.944ZM209.608 81.6364V118H205.346L185.531 89.4489H185.176V118H180.773V81.6364H185.034L204.92 110.259H205.275V81.6364H209.608ZM243.277 93C242.886 91.8045 242.371 90.7332 241.732 89.7862C241.105 88.8274 240.353 88.0107 239.477 87.3359C238.613 86.6612 237.631 86.1463 236.53 85.7912C235.429 85.4361 234.222 85.2585 232.908 85.2585C230.753 85.2585 228.794 85.8149 227.031 86.9276C225.267 88.0402 223.864 89.6797 222.822 91.8459C221.781 94.0121 221.26 96.6695 221.26 99.8182C221.26 102.967 221.787 105.624 222.84 107.79C223.894 109.957 225.32 111.596 227.119 112.709C228.919 113.821 230.943 114.378 233.192 114.378C235.275 114.378 237.11 113.934 238.696 113.046C240.294 112.147 241.537 110.88 242.425 109.246C243.324 107.601 243.774 105.666 243.774 103.44L245.124 103.724H234.186V99.8182H248.036V103.724C248.036 106.719 247.396 109.323 246.118 111.537C244.851 113.75 243.099 115.467 240.862 116.686C238.637 117.893 236.08 118.497 233.192 118.497C229.972 118.497 227.143 117.74 224.705 116.224C222.278 114.709 220.384 112.555 219.023 109.761C217.673 106.968 216.999 103.653 216.999 99.8182C216.999 96.9418 217.383 94.3553 218.153 92.0589C218.934 89.7507 220.035 87.7857 221.455 86.1641C222.876 84.5424 224.557 83.2995 226.498 82.4354C228.439 81.5713 230.576 81.1392 232.908 81.1392C234.825 81.1392 236.613 81.4292 238.27 82.0092C239.939 82.5774 241.424 83.3883 242.727 84.4418C244.04 85.4834 245.135 86.7322 246.011 88.1882C246.887 89.6323 247.491 91.2363 247.822 93H243.277Z" fill="white"/>
</svg>
